<svg xmlns="http://www.w3.org/2000/svg" width="1200" height="630" viewBox="0 0 1200 630" role="img"
  aria-label="POCKET – skanuj paragony i kontroluj budżet domowy">
  <defs>
    <linearGradient id="bg" x1="0" y1="0" x2="1" y2="1">
      <stop offset="0%" stop-color="#0b1220" />
      <stop offset="100%" stop-color="#12233a" />
    </linearGradient>
    <linearGradient id="accent" x1="0" y1="0" x2="1" y2="1">
      <stop offset="0%" stop-color="#0CA8B9" />
      <stop offset="100%" stop-color="#34b88a" />
    </linearGradient>
  </defs>

  <rect width="1200" height="630" fill="url(#bg)" />
  <circle cx="980" cy="110" r="260" fill="#0CA8B9" opacity="0.1" />
  <circle cx="170" cy="540" r="280" fill="#34b88a" opacity="0.08" />

  <g transform="translate(90 90) scale(1.1)">
    <path d="M10 5H80V95L73 90L66 95L59 90L52 95L45 90L38 95L31 90L24 95L17 90L10 95V5Z" fill="rgba(0,0,0,0.15)"
      transform="translate(2, 2)" />
    <path d="M10 5H80V95L73 90L66 95L59 90L52 95L45 90L38 95L31 90L24 95L17 90L10 95V5Z" fill="#10b981" stroke="#065f46"
      stroke-width="2.5" />
    <text x="45" y="44" dominant-baseline="middle" text-anchor="middle" fill="white" font-size="38" font-weight="900"
      font-family="Inter, sans-serif">P</text>
    <g transform="translate(25, 58)">
      <rect width="40" height="3.5" rx="1.75" fill="white" fill-opacity="1" />
      <rect y="9" width="28" height="3.5" rx="1.75" fill="white" fill-opacity="0.6" />
      <rect y="18" width="35" height="3.5" rx="1.75" fill="white" fill-opacity="0.3" />
    </g>
  </g>

  <text x="220" y="172" fill="#ffffff" font-size="56" font-family="Segoe UI, Arial, sans-serif"
    font-weight="800">POCKET</text>
  <text x="96" y="274" fill="#e2e8f0" font-size="52" font-family="Segoe UI, Arial, sans-serif" font-weight="700">
    Skanuj paragony i kontroluj budżet domowy
  </text>
  <text x="96" y="334" fill="#9fb3c8" font-size="32" font-family="Segoe UI, Arial, sans-serif" font-weight="500">
    Rozpoznawanie paragonów • Historia cen • Planowanie zakupów
  </text>

  <g transform="translate(96 430)">
    <rect width="470" height="86" rx="43" fill="url(#accent)" />
    <text x="235" y="54" text-anchor="middle" fill="#032f2f" font-size="34" font-family="Segoe UI, Arial, sans-serif"
      font-weight="800">
      try-pocket.vercel.app
    </text>
  </g>
</svg>